<svg xmlns="http://www.w3.org/2000/svg" version="1.1" xmlns:xlink="http://www.w3.org/1999/xlink" xmlns:svgjs="http://svgjs.com/svgjs" width="1440" height="1060" preserveAspectRatio="none" viewBox="0 0 1440 1060"><g mask="url(&quot;#SvgjsMask1542&quot;)" fill="none"><rect width="1440" height="1060" x="0" y="0" fill="#0e2a47"></rect><path d="M-58.51292034450888 715.1146942304339L81.34819548882959 957.3612528570518 323.5947541154475 817.5001370237133 183.733638282109 575.2535783970955z" fill="rgba(28, 83, 142, 0.4)" class="triangle-float1"></path><path d="M944.9031372612836-7.945182463835408L866.2556310722362 220.4637605124728 1094.6645740485444 299.1112667015202 1173.3120802375918 70.70232372521204z" fill="rgba(28, 83, 142, 0.4)" class="triangle-float1"></path><path d="M393.427,157.479C422.799,156.689,448.795,139.362,463.022,113.653C476.797,88.76,475.774,58.779,461.743,34.029C447.507,8.917,422.292,-8.856,393.427,-9.113C364.14,-9.374,338.092,7.712,322.968,32.793C307.287,58.797,302.09,91.143,317.029,117.58C332.178,144.388,362.646,158.307,393.427,157.479" fill="rgba(28, 83, 142, 0.4)" class="triangle-float3"></path><path d="M-213.01407905211127 102.2238049782832L74.88655391136436 230.40542529210697 203.06817422518813-57.49520767136866-84.8324587382875-185.67682798519243z" fill="rgba(28, 83, 142, 0.4)" class="triangle-float3"></path><path d="M1251.5284299473826 724.6978323354612L1133.7712770127014 573.9755498058352 983.0489944830753 691.7327027405165 1100.8061474177566 842.4549852701425z" fill="rgba(28, 83, 142, 0.4)" class="triangle-float1"></path><path d="M274.09518395065936 675.0500842840552L159.4808980623858 890.6082050609019 375.03901883923254 1005.2224909491755 489.6533047275061 789.6643701723287z" fill="rgba(28, 83, 142, 0.4)" class="triangle-float1"></path><path d="M865.4134857554687 272.4638640234962L797.7928010690573 394.4548084419334 1014.5895600399188 434.89036326233185z" fill="rgba(28, 83, 142, 0.4)" class="triangle-float1"></path><path d="M245.4963124326232 1130.2872599664122L486.51947398727793 1065.7052984706465 421.9375124915122 824.6821369159918 180.9143509368575 889.2640984117575z" fill="rgba(28, 83, 142, 0.4)" class="triangle-float1"></path><path d="M256.387,621.331C300.191,621.453,339.623,596.235,361.571,558.326C383.568,520.333,386.874,472.938,363.996,435.47C341.95,399.366,298.69,385.925,256.387,386.065C214.374,386.204,171.797,400.259,150.002,436.177C127.467,473.314,130.57,520.081,152.211,557.745C173.934,595.552,212.783,621.21,256.387,621.331" fill="rgba(28, 83, 142, 0.4)" class="triangle-float1"></path><path d="M484.31824175163877 269.7281843497099L521.3704219884446 503.66644344185545 755.3086810805901 466.6142632050495 718.2565008437842 232.67600411290402z" fill="rgba(28, 83, 142, 0.4)" class="triangle-float3"></path><path d="M215.94480531381578 73.3484754493196L259.41914875848414 297.00458360926086 439.60091347375703 29.87413200465125z" fill="rgba(28, 83, 142, 0.4)" class="triangle-float3"></path><path d="M831.113,972.443C873.24,971.821,918.039,964.26,940.628,928.695C964.607,890.94,961.727,841.684,938.4,803.523C916.021,766.911,873.972,747.432,831.113,749.533C791.625,751.468,761.73,779.793,740.617,813.218C717.464,849.873,694.424,894.323,715.847,932.015C737.411,969.955,787.478,973.087,831.113,972.443" fill="rgba(28, 83, 142, 0.4)" class="triangle-float3"></path></g><defs><mask id="SvgjsMask1542"><rect width="1440" height="1060" fill="#ffffff"></rect></mask><style>
            @keyframes float1 {
                0%{transform: translate(0, 0)}
                50%{transform: translate(-10px, 0)}
                100%{transform: translate(0, 0)}
            }

            .triangle-float1 {
                animation: float1 5s infinite;
            }

            @keyframes float2 {
                0%{transform: translate(0, 0)}
                50%{transform: translate(-5px, -5px)}
                100%{transform: translate(0, 0)}
            }

            .triangle-float2 {
                animation: float2 4s infinite;
            }

            @keyframes float3 {
                0%{transform: translate(0, 0)}
                50%{transform: translate(0, -10px)}
                100%{transform: translate(0, 0)}
            }

            .triangle-float3 {
                animation: float3 6s infinite;
            }
        </style></defs></svg>